<?xml version="1.0" standalone="no"?>
<!DOCTYPE svg PUBLIC "-//W3C//DTD SVG 20010904//EN"
 "http://www.w3.org/TR/2001/REC-SVG-20010904/DTD/svg10.dtd">
<svg version="1.0" xmlns="http://www.w3.org/2000/svg"
 width="700.000000pt" height="700.000000pt" viewBox="0 0 700.000000 700.000000"
 preserveAspectRatio="xMidYMid meet">
<metadata>
Created by potrace 1.11, written by Peter Selinger 2001-2013
</metadata>
<g transform="translate(0.000000,700.000000) scale(0.100000,-0.100000)"
fill="#000000" stroke="none">
<path d="M10 3500 l0 -3490 3490 0 3490 0 0 3490 0 3490 -3490 0 -3490 0 0
-3490z m4130 1009 c164 -41 348 -153 466 -283 349 -383 379 -952 73 -1359
l-51 -68 55 -62 c30 -34 91 -102 135 -152 l80 -90 -181 -3 -180 -2 -61 65 -61
66 -80 -40 c-44 -22 -120 -52 -170 -67 -82 -25 -104 -28 -260 -28 -136 -1
-184 3 -238 18 -278 75 -505 259 -636 516 -93 180 -128 342 -118 539 19 386
241 724 581 885 153 73 273 97 451 91 66 -3 144 -13 195 -26z m-2870 -563
c162 -313 299 -568 304 -568 5 0 143 256 307 569 l298 568 210 3 211 2 0
-1015 0 -1015 -195 0 -195 0 0 673 c-1 531 -3 668 -13 655 -7 -9 -124 -233
-262 -497 l-250 -480 -110 -1 -110 0 -250 481 c-137 264 -255 488 -262 497
-10 13 -12 -124 -13 -655 l0 -673 -195 0 -195 0 0 1015 0 1015 212 -2 212 -3
296 -569z m5350 404 l0 -170 -325 0 -325 0 0 -845 0 -845 -195 0 -195 0 0 845
0 845 -325 0 -325 0 0 170 0 170 845 0 845 0 0 -170z"/>
<path d="M3751 4174 c-263 -71 -442 -339 -442 -664 0 -272 111 -491 313 -613
92 -55 155 -71 278 -72 83 0 119 5 171 23 117 40 118 29 -21 188 -68 76 -137
154 -154 172 l-30 32 185 0 184 0 65 -74 c36 -41 70 -74 75 -72 17 3 73 126
97 211 32 113 31 296 -1 409 -63 225 -206 387 -400 453 -79 27 -234 30 -320 7z"/>
</g>
</svg>
